<svg width="19.77" height="20" version="1.1" viewBox="0 0 19.765625 20" xmlns="http://www.w3.org/2000/svg">
	<path d="m9.883 0c-4.441 0-8.055 3.613-8.055 8.055 0 1.63 0.4867 3.149 1.322 4.418l-3.15 4.594 3.605-0.6719 0.6719 3.605 2.971-4.334c0.8258 0.2865 1.713 0.4434 2.635 0.4434 0.9221 0 1.807-0.1569 2.633-0.4434l2.973 4.334 0.6719-3.605 3.605 0.6719-3.15-4.594c0.8357-1.269 1.322-2.788 1.322-4.418 0-4.441-3.613-8.055-8.055-8.055zm0 1.18c3.791 0 6.875 3.084 6.875 6.875 0 3.792-3.084 6.877-6.875 6.877-3.791 0-6.877-3.085-6.877-6.877 0-3.791 3.086-6.875 6.877-6.875zm3.354 3.855-4.789 4.789-1.916-1.916-0.834 0.832l2.75 2.75 5.621-5.621zm-9.328 8.416c0.6355 0.7028 1.393 1.294 2.238 1.738l-1.232 1.797-0.3652-1.967-1.967 0.3672zm11.95 0 1.326 1.936-1.967-0.3672-0.3672 1.967-1.232-1.797c0.8457-0.4447 1.605-1.035 2.24-1.738z"/>
</svg>
