<svg width="620.4" height="535.8" version="1.1" viewBox="0 0 620.42816 535.78406" xmlns="http://www.w3.org/2000/svg">
	<path d="m0 535.8 0.4281-455.1 60.63-0.7166 0.7063-79.28 158-0.6878v80.02h181.3v-80h157.3v79.95l62 0.7158v454.7zm586.4-87.76-97.33-0.7936 62.92-113.9h34.42v-218.7h-552v218.7l113.3 1-62.42 113-50.89 0.7242v53.28h552zm-458.7-0.8882 62.93-113.8h61.16l-67.23 114.7zm121.4-0.752 61.98-112.4 60.58 0.3083-65.98 113zm120.1 0.5041 62.98-113.5 60.81 0.4707-66.42 113.5zm-245.5-216.2h-45.33v-33.33h45.33v-45.33h33.33v45.33h45.33v33.33h-45.33v45.33h-33.33zm294-32.67 124.7-0.693v33.36h-125.4zm-231.3-164.7h-90.67v46.67h90.67zm338.7 0h-90.67v46.67h90.67z"/>
</svg>
