<svg width="486.8" height="538.7" version="1.1" viewBox="0 0 486.76175 538.66669" xmlns="http://www.w3.org/2000/svg">
	<path d="m0 377.6v-161.1l56.33-54.25 56.33-54.25 55.16 0.3131 55.16 0.313 20.76 52.77 20.76 52.77 9.282 2.391c5.105 1.315 15.34 5.419 22.75 9.12 11.66 5.828 15.16 8.44 26.13 19.51 14.08 14.2 21.64 26.13 27.26 43.02 8.954 26.9 6.23 60.48-6.935 85.5-2.004 3.808-3.806 7.253-4.006 7.656-0.448 0.9043 21.88 19.93 23.39 19.93 0.5988 0 4.544-4.2 8.767-9.333 4.223-5.133 8.093-9.33 8.599-9.327 0.5066 4e-3 24.79 20.14 53.97 44.75l53.05 44.74-3.048 3.611c-1.676 1.986-14.03 16.65-27.45 32.58-13.42 15.93-24.94 28.97-25.61 28.97-0.8602 0-92.86-76.59-105.8-88.09-0.6363-0.5649 2.514-5.388 7-10.72 4.486-5.33 8.157-10.11 8.157-10.63 0-0.5183-5.188-5.311-11.53-10.65-10.88-9.159-11.7-9.601-14.52-7.81-15.7 9.964-25.16 14.86-34.7 17.96l-11.25 3.66v107.6h-268zm234.7 91.36v-36.37l-11.67-2.397c-12.4-2.548-29.29-9.749-39.9-17.01-20.73-14.19-37.31-37.73-44.05-62.53-3.308-12.18-3.273-43.85 0.0632-56 3.468-12.63 13.04-31.42 20.91-41.06 14.39-17.61 37.61-32.45 58.31-37.25 5.317-1.234 9.667-2.573 9.667-2.975s-6.234-16.63-13.85-36.06l-13.85-35.32-37.15-0.286-37.15-0.286-47 45.43-47 45.43v273.1h202.7zm198.7 14.87c4.041-4.792 5.398-7.359 4.542-8.591-2.963-4.265-54.22-46.1-55.21-45.07-3.874 4.077-10.68 12.93-10.68 13.89 0 1.187 53.38 46.57 54.79 46.59 0.4352 5e-3 3.385-3.067 6.554-6.826zm-173.7-85.94c33.5-6.92 57.13-32.06 61.91-65.87 3.814-26.97-9.544-56.3-32.88-72.2-13.22-9.007-27.31-13.41-42.68-13.35-22.39 0.0968-38.22 6.738-54.13 22.71-15.6 15.65-22.51 31.99-22.54 53.29-0.0464 32.64 19.67 61.05 50.01 72.08 15.17 5.513 25.6 6.377 40.3 3.34zm-146.3-354.6v-43.33h108v86.67h-108zm75.73 0.3333l-0.3918-9.667-21-0.3672-21-0.3672v20.07h42.78z"/>
</svg>
