<svg width="28" height="25.67" version="1.1" viewBox="0 0 28.0044 25.666071" xmlns="http://www.w3.org/2000/svg">
	<path d="m2.334 0c-1.286 0-2.334 1.047-2.334 2.334v22.75c0 0.2358 0.1418 0.4491 0.3594 0.5391 0.0718 0.0302 0.1494 0.04297 0.2246 0.04297 0.1515 0 0.3004-0.05822 0.4121-0.1699l5.662-5.662h16.68c1.286 0 2.332-1.047 2.332-2.334v-9.676l1.68-1.678v-0.00195c0.4159-0.4158 0.6543-0.9908 0.6543-1.578 0-1.232-1.001-2.232-2.232-2.232-0.0338 0-0.06786 0.00819-0.1016 0.00977v-0.00977c0-1.287-1.046-2.334-2.332-2.334zm0 1.166h21c0.6438 0 1.166 0.5248 1.166 1.168v0.3984c-0.1107 0.07613-0.217 0.1583-0.3125 0.2539l-6.348 6.348h-11.42c-0.3224 0-0.582 0.2596-0.582 0.582s0.2596 0.584 0.582 0.584h10.49l-0.5605 2.803c-0.0387 0.1914 0.02236 0.3894 0.1602 0.5273 0.1106 0.1105 0.2594 0.1699 0.4121 0.1699 0.0376 0 0.07763-0.0043 0.1152-0.01172l2.914-0.582c0.1139-0.0228 0.2179-0.07866 0.2988-0.1602l4.256-4.256v8.51c0 0.6431-0.5224 1.166-1.166 1.166h-16.92c-0.1549 0-0.3027 0.06258-0.4121 0.1719l-4.838 4.838v-21.34c0-0.6431 0.5243-1.168 1.168-1.168zm23.43 2.334c0.5879 0 1.066 0.4785 1.066 1.066 1e-4 0.2803-0.1142 0.5551-0.3125 0.7539l-0.8555 0.8555-1.508-1.51 0.8535-0.8535c0.1983-0.1977 0.4745-0.3125 0.7559-0.3125zm-2.434 1.992 1.508 1.508l-5.297 5.297-1.885 0.377 0.377-1.887zm-16.92 0.3418c-0.3224 0-0.584 0.2596-0.584 0.582 6e-5 0.3225 0.2616 0.584 0.584 0.584h12.83c0.3224 0 0.584-0.2615 0.584-0.584 0-0.3224-0.2616-0.582-0.584-0.582zm0 7c-0.3224 0-0.584 0.2596-0.584 0.582 0 0.3225 0.2615 0.584 0.584 0.584h7c0.3225 0 0.582-0.2615 0.582-0.584 0-0.3224-0.2595-0.582-0.582-0.582z"/>
</svg>
