<svg width="668.8" height="455.9" version="1.1" viewBox="0 0 668.81622 455.88043" xmlns="http://www.w3.org/2000/svg">
	<path d="m85.59 453.9c-30.72-6.598-57.35-32.69-65.37-64.07-7.213-28.2 0.2237-58.55 19.71-80.43l7.21-8.094h-3.966c-3.7 0-5.283-2.014-23.61-30.02-11.08-16.94-19.61-31.32-19.57-33 0.0399-1.641 11.39-34.78 25.22-73.65l25.15-70.67 54.61-0.6667 54.61-0.6667 0.3641-23.67c0.2003-13.02 0.5981-23.67 0.884-23.67 4.645 0 225.5-43 225.9-43.97 0.3049-0.9148 32.75-1.365 98.34-1.365h97.89v76h-30.45l-1.507 7c-4.5 20.9-34.71 163.9-34.71 164.3 0 0.2612-1.259 0.6667-2.798 0.901-2.252 0.343 11.55 15.9 70.8 79.76 40.48 43.63 76.06 81.88 79.08 85l5.475 5.667h-183.2v-60.76l-7.139-7.05-7.139-7.05-0.8406 7.095c-2.906 24.53-16.48 51.58-35.07 69.9-14.96 14.74-34.36 25.85-55.02 31.53-14.81 4.066-46.98 4.001-62.12-0.1268-31.11-8.479-60.37-31.25-75.49-58.76l-4.455-8.105h-46.88l-1.665 6.497c-11.21 43.74-58.47 71.91-104.2 62.1zm36.26-34.02c20.03-6.748 33.53-22.64 37.27-43.88 2.758-15.66-3.415-34.07-15.46-46.11-21.95-21.94-56.06-21.53-77.48 0.9224-4.06 4.256-9.007 11.21-10.99 15.45-3.208 6.847-3.612 9.273-3.612 21.71 0 12.98 0.3107 14.66 4.258 22.99 11.98 25.3 40.14 37.64 66.01 28.92zm-27.6-27.04c-9.588-4.399-15.33-13.72-15.33-24.88 0-24.82 29.78-35.69 46.29-16.88 10.41 11.86 7.963 30.5-5.137 39.17-6.509 4.308-19.28 5.591-25.82 2.593zm282 25.8c29.38-9.811 51.41-33.05 59.44-62.7 3.158-11.66 3.217-32.53 0.1253-43.98-4.332-16.04-11.1-27.6-23.53-40.15-18.01-18.19-37.71-26.52-62.7-26.52-15.51 0-25.1 2.29-40 9.55-20.52 10-38.37 31.1-45.15 53.39-15.39 50.53 17.43 103.4 70.49 113.6 8.2 1.57 32.8-0.3114 41.33-3.162zm-37.33-46.51c-18.02-5.929-28.51-19.98-28.51-38.17 0-15.25 6.842-27.03 20.32-34.99 7.748-4.575 22.19-5.665 31.98-2.414 21.62 7.182 32.57 33.68 22.45 54.36-6.621 13.53-18.39 21.2-33.58 21.89-5.133 0.2313-10.83-0.0731-12.67-0.6764zm250.5 10.84c-3.179-4.04-69.35-75.01-69.94-75.01-0.3088 0-0.5614 17.4-0.5614 38.67v38.67h36.16c34.21 0 36.06-0.1259 34.33-2.326zm-361.7-40.67c-0.8135-8.828 0.4278-25.82 2.678-36.67l0.8993-4.333h-68.72l6.586 7c8.406 8.934 15.46 20.65 19.07 31.67 1.562 4.767 3.096 9.417 3.409 10.33 0.4171 1.224 5.399 1.667 18.77 1.667h18.2zm241-77.27-17.03-17.07h-14.29l5.595 6.683c5.932 7.085 18.65 27.43 18.65 29.84 0 0.7851 5.25 6.704 11.67 13.15l11.67 11.73 0.3829-13.63 0.3829-13.63zm-216.5-5.057c3.2-4.394 8.735-10.72 12.3-14.05s6.483-6.34 6.483-6.678-52.25-0.6132-116.1-0.6132c-63.86 0-115.9 0.4806-115.7 1.068 0.2444 0.5874 4.344 7.182 9.111 14.65l8.667 13.59 94.7 0.0133 94.7 0.0133 5.818-7.989zm134.5-58.34-0.3756-15.67h-10.67l-0.3759 14.09-0.376 14.09 5.043 1.41c2.773 0.7757 5.512 1.486 6.085 1.579 0.5733 0.0927 0.8733-6.882 0.6667-15.5zm116.9-55.65c7.968-37.76 14.23-68.83 13.92-69.04-0.3145-0.2163-22.32-0.1665-48.91 0.1107l-48.33 0.5039v137.1h68.84zm-162 49.98v-10.67h-181.3v-58.67h-86.07l-13.63 38.53c-7.498 21.19-13.63 39.19-13.63 40 0 1.064 40.8 1.471 147.3 1.471h147.3zm45.01-101c0.3282-54.46 0.2161-57.67-2.018-57.67-2.011 0-164.8 30.53-185.3 34.75l-7 1.441v39.02c0 21.46 0.4039 39.42 0.8976 39.91 0.4937 0.4937 44.14 0.7437 97 0.5556l96.1-0.342zm163-56.33v-5.333h-129.3v10.67h129.3z"/>
</svg>
