<svg width="766.6" height="559.7" version="1.1" viewBox="0 0 766.60254 559.74609" xmlns="http://www.w3.org/2000/svg">
	<path d="m124.2 557.9c-3.905-0.945-12.28-4.287-18.62-7.427-19.67-9.749-37.05-30.06-43.03-50.29l-1.674-5.667h-60.91v-192h541.3v-126.7l84.86 0.3432 84.86 0.3432 27.74 62.67 27.74 62.67 0.0665 50.12c0.0367 27.56-0.3306 70.91-0.816 96.33l-0.8825 46.22h-106.5l-0.7808 3c-0.4295 1.65-3.477 8.39-6.773 14.98-11.11 22.21-33.3 39.9-57.03 45.46-13.8 3.233-38.2 2.061-50.16-2.409-25.18-9.416-45.45-29.74-53.88-54.03l-2.428-7h-256.2l-2.215 7c-6.131 19.37-23.86 39.75-42.56 48.9-6.074 2.973-14.62 6.312-18.99 7.42-9.677 2.452-33.15 2.489-43.15 0.0683zm30.58-31.4c22.82-4.258 41.41-23.13 44.91-45.6 3.636-23.33-8.811-46.93-30.29-57.44-8.253-4.039-9.621-4.289-23.43-4.289-13.81 0-15.18 0.2503-23.43 4.289-9.783 4.787-20.53 15.15-25.19 24.29-4.686 9.186-6.986 22.74-5.463 32.2 4.17 25.89 26.89 46.39 52.9 47.74 1.55 0.0804 6.05-0.4571 10-1.194zm-15.78-27.9c-16.55-4.152-24.37-23.37-16.05-39.43 7.264-14.01 28.89-17.23 41.49-6.169 8.801 7.724 10.24 26.41 2.748 35.67-6.794 8.395-18.24 12.43-28.19 9.932zm442.4 27.88c23.61-4.478 40.96-21.93 45.32-45.61 4.066-22.07-9.082-46.77-30.51-57.32-11.03-5.432-27.74-6.734-39.14-3.049-33.72 10.9-48.76 49.83-30.97 80.18 7.071 12.07 22.61 22.95 36.73 25.73 8.124 1.599 10.45 1.607 18.58 0.0657zm-16.15-28.16c-15.85-4.677-23.31-22.71-15.81-38.21 8.24-17.02 33.65-18.59 45.09-2.79 9.209 12.71 4.7 31.95-9.168 39.13-4.987 2.579-14.68 3.483-20.12 1.878zm-504.6-46.7c7.767-31.69 33.25-56.98 64.96-64.45 10.87-2.563 29.47-2.531 40.9 0.0692 5.008 1.139 13.74 4.439 19.4 7.333l10.29 5.262h161.9c121.5 0 161.9 0.384 161.9 1.54 0 0.9588 0.8805 0.7552 2.333-0.5397 1.283-1.144 6.083-3.975 10.67-6.292l8.333-4.213v-55.84l-254.3 0.3368-254.3 0.3368-0.3464 63-0.3464 63h26.41zm427.3-0.6897c1.336-5.262 3.384-11.41 4.549-13.67l2.12-4.099h-134.8c-127.9 0-134.8 0.1205-133.9 2.333 1.569 4.014 5.848 18.16 6.656 22.01l0.772 3.673 126.1-0.3401 126.1-0.3401zm245.3-3.765v-14h-40.67c-22.37 0-40.67 0.2237-40.67 0.4972 0 0.2734 1.143 3.123 2.54 6.333 1.397 3.21 3.239 9.286 4.095 13.5l1.555 7.667h73.14zm0-92.49v-45.16l-21.46-48.51c-11.8-26.68-21.77-49.26-22.14-50.18-0.529-1.297-13.37-1.667-57.87-1.667h-57.19v176h5.12c8.237 0 25.34 4.969 34.1 9.91l8.111 4.571 55.67 0.0928 55.67 0.0928zm-138.7-82.18v-46h83.5l17.73 44.33c9.753 24.38 18.03 45.08 18.39 46 0.5239 1.318-11.9 1.667-59.48 1.667h-60.14zm70.67 12.9c0-0.6027-2.293-6.753-5.095-13.67l-5.095-12.57h-27.81l-0.3886 11.89c-0.2137 6.542-0.0825 12.69 0.2915 13.67 0.5209 1.358 5.058 1.772 19.39 1.772 10.29 0 18.71-0.4931 18.71-1.096zm-282-69.01c-53.53-45.11-98.36-83.04-99.62-84.29-2.16-2.145-0.7247-4.125 25.54-35.24l27.83-32.96 99.38 83.63c54.66 46 99.41 84.04 99.46 84.55 0.0579 0.7204-47.39 57.82-53.76 64.7-1.152 1.244-24.22-17.52-98.83-80.39zm97.76 29.86c1.969-2.337 4.641-5.595 5.937-7.24l2.356-2.99-73.64-62.09c-40.5-34.15-74.04-62.09-74.53-62.09-0.4884 0-3.631 3.211-6.984 7.136l-6.096 7.136 73.6 62.15c40.48 34.18 74.09 62.17 74.69 62.2s2.697-1.861 4.667-4.198zm-256.5 21.44c-17.54-14.75-32.4-27.29-33.03-27.88-0.8362-0.7799 65.89-81.95 79.79-97.05 1.288-1.401 7.962 3.613 34.15 25.65 17.9 15.07 32.54 27.95 32.54 28.64 0 1.003-80.49 97.45-81.33 97.45-0.1327 0-14.59-12.06-32.12-26.81zm48.75-44.41c18.42-21.87 18.91-22.62 16.33-24.67-1.465-1.163-4.98-3.982-7.811-6.264l-5.148-4.15-19.59 23.3-19.59 23.3 7.587 6.406c4.173 3.523 7.955 6.004 8.405 5.513 0.45-0.4911 9.365-11.04 19.81-23.45zm-30.04-133.1c-15.3-18.53-30.14-36.49-32.98-39.91l-5.174-6.225 18.36-21.78c10.1-11.98 18.51-21.98 18.69-22.24 0.2849-0.3937 79.35 46.52 86.24 51.18 2.157 1.456-0.5094 5.061-27.2 36.78-16.27 19.34-29.71 35.33-29.86 35.52s-12.78-14.8-28.08-33.33zm35.95-29.2c-1.015-1.678-28.66-17.48-29.36-16.78-0.393 0.3931 4.246 6.736 10.31 14.09l11.02 13.38 4.269-4.922c2.348-2.707 4.038-5.304 3.756-5.77z"/>
</svg>
