<svg width="10" height="10" viewBox="0 0 10 10" xmlns="http://www.w3.org/2000/svg">
<path d="M7.33858 6.45475C7.83067 5.78276 8.12501 4.95734 8.12501 4.06252C8.12501 1.82252 6.30249 0 4.0625 0C1.8225 0 0 1.82252 0 4.06252C0 6.30251 1.82252 8.12503 4.06252 8.12503C4.95734 8.12503 5.78284 7.83065 6.45483 7.33856L9.11627 10L10.0001 9.11621C10.0001 9.1162 7.33858 6.45475 7.33858 6.45475ZM4.06252 6.87502C2.5116 6.87502 1.25001 5.61343 1.25001 4.06252C1.25001 2.5116 2.5116 1.25001 4.06252 1.25001C5.61343 1.25001 6.87502 2.5116 6.87502 4.06252C6.87502 5.61343 5.61341 6.87502 4.06252 6.87502Z"/>
</svg>
