<svg width="19" height="17.81" version="1.1" viewBox="0 0 19 17.806641" xmlns="http://www.w3.org/2000/svg">
	<path d="m10.25 0c-1.337 0-2.432 1.095-2.432 2.432v3.16c0 1.337 1.095 2.43 2.432 2.43h6.805l1.945 1.701v-7.293c-4e-4 -1.337-1.095-2.43-2.432-2.43zm-6.438 1.068-3.762 2.236 0.003906 0.003906-0.05469 0.01562c0.9468 3.151 2.795 6.281 5.477 8.963 2.726 2.726 5.914 4.588 9.117 5.52l0.01758-0.05664v-2e-3l2.234-3.76-3.76-2.234c-1.149-0.6833-2.649-0.3017-3.332 0.8477l-0.3711 0.6231c-0.9066-0.6528-1.785-1.394-2.617-2.227-0.7952-0.7953-1.509-1.632-2.141-2.496l0.5742-0.3398c1.149-0.6832 1.531-2.183 0.8477-3.332zm7.652 3.793c0.4031 0 0.7285 0.3258 0.7285 0.7285 0 0.4031-0.3254 0.7305-0.7285 0.7305-0.4027 0-0.7305-0.3278-0.7305-0.7305 0-0.4027 0.3278-0.7285 0.7305-0.7285zm1.943 0c0.4031 0 0.7305 0.3258 0.7305 0.7285 0 0.4031-0.3274 0.7305-0.7305 0.7305-0.4027 0-0.7285-0.3278-0.7285-0.7305 0-0.4027 0.3258-0.7285 0.7285-0.7285zm1.945 0c0.4031 0 0.7285 0.3258 0.7285 0.7285 0 0.4031-0.3258 0.7305-0.7285 0.7305s-0.7285-0.3278-0.7285-0.7305c0-0.4027 0.3258-0.7285 0.7285-0.7285z"/>
</svg>
