<svg version="1.1" viewBox="0 0 20 20" xmlns="http://www.w3.org/2000/svg">
	<path d="m0.4551 0c-0.251 0-0.4551 0.204-0.4551 0.4551v0.9082c0 0.251 0.204 0.4551 0.4551 0.4551h1.145l2.84 9.332-1.061 1.238c-0.4192 0.4891-0.609 1.163-0.416 1.777 0.2468 0.786 0.9404 1.289 1.74 1.289h13.02c0.2511 0 0.4551-0.204 0.4551-0.4551v-0.9082c0-0.2511-0.204-0.4551-0.4551-0.4551h-13.02l1.441-1.682c0.03622-0.0423 0.06236-0.08952 0.08984-0.1367h8.809c0.7045 0 1.346-0.4075 1.646-1.045l3.172-6.74c0.091-0.194 0.1387-0.4095 0.1387-0.623v-0.1289c0-0.8084-0.6563-1.463-1.465-1.463h-14.9c-0.04487 0-0.08685 0.01665-0.1289 0.0293l-0.3652-1.203c-0.1165-0.3827-0.4691-0.6445-0.8691-0.6445zm5 16.36c-1.004 0-1.818 0.8143-1.818 1.818 0 1.004 0.8142 1.818 1.818 1.818s1.818-0.8142 1.818-1.818c0-1.004-0.8142-1.818-1.818-1.818zm10.91 0c-1.004 0-1.818 0.8143-1.818 1.818 0 1.004 0.8143 1.818 1.818 1.818 1.004 0 1.818-0.8142 1.818-1.818 0-1.004-0.8142-1.818-1.818-1.818z"/>
</svg>
