<svg width="24.38" height="20" version="1.1" viewBox="0 0 24.380859 20" xmlns="http://www.w3.org/2000/svg">
	<path d="m2.143 0v1.428h1.43v4.561c-1.207 0.3121-2.342 0.884-3.312 1.686l0.9102 1.102c1.275-1.053 2.889-1.633 4.545-1.633 3.939 0 7.143 3.204 7.143 7.143v2.143h3.012c0.3411 2.024 2.107 3.572 4.227 3.572 2.363 0 4.285-1.922 4.285-4.285 0-1.266-0.5514-2.406-1.428-3.191v-2.523c0-1.576-1.282-2.857-2.857-2.857h-1.43v-3.57c0-0.3938 0.321-0.7148 0.7148-0.7148v-1.43c-1.182 0-2.143 0.963-2.143 2.145v3.57h-3.135l-1.715-5.715h1.184v-1.428zm2.857 1.428h5.896l1.715 5.715h-2.164c-1.357-0.9022-2.984-1.428-4.732-1.428-0.239 0-0.4779 0.009387-0.7148 0.0293zm0.7148 7.145c-3.151 0-5.715 2.562-5.715 5.713 0 3.151 2.564 5.715 5.715 5.715 3.151 0 5.713-2.564 5.713-5.715 0-3.151-2.562-5.713-5.713-5.713zm6.383 0h7.998c0.7878 0 1.428 0.64 1.428 1.428v1.674c-0.447-0.1584-0.9269-0.2461-1.428-0.2461h-6.301c-0.3775-1.064-0.9581-2.031-1.697-2.855zm-6.383 1.428c2.363 0 4.285 1.922 4.285 4.285s-1.922 4.287-4.285 4.287c-2.363 0-4.287-1.924-4.287-4.287s1.924-4.285 4.287-4.285zm0 2.143c-1.182 0-2.143 0.961-2.143 2.143 0 1.182 0.961 2.143 2.143 2.143 1.182 0 2.143-0.9611 2.143-2.143 0-1.182-0.961-2.143-2.143-2.143zm8.451 0.7148h2.738c-0.5292 0.5904-0.8979 1.328-1.035 2.143h-1.584v-0.7148c0-0.4866-0.04064-0.9628-0.1191-1.428zm5.93 0c1.576 0 2.857 1.282 2.857 2.857s-1.282 2.857-2.857 2.857-2.857-1.282-2.857-2.857 1.282-2.857 2.857-2.857zm-14.38 0.7148c0.3938 0 0.7148 0.3191 0.7148 0.7129s-0.3211 0.7148-0.7148 0.7148c-0.3938 0-0.7148-0.321-0.7148-0.7148s0.3211-0.7129 0.7148-0.7129zm14.38 1.428c-0.3945 0-0.7148 0.3203-0.7148 0.7148s0.3203 0.7129 0.7148 0.7129c0.3946 0 0.7129-0.3184 0.7129-0.7129s-0.3183-0.7148-0.7129-0.7148z"/>
</svg>
