<svg width="766.7" height="489.2" version="1.1" viewBox="0 0 766.66662 489.24844" xmlns="http://www.w3.org/2000/svg">
	<path d="m128.7 488.5c-31.29-8.396-55.26-29.46-64.52-56.71l-2.403-7.072-30.87-0.3579-30.87-0.3579v-94.62h36v-329.3h538.7v105.3h137l27.52 62.34 27.52 62.34v194l-53.67 0.0144-53.67 0.0144-3.71 9.899c-9.553 25.49-33.3 46.54-60.24 53.39-10.19 2.591-32.19 2.578-43.23-0.0265-23.09-5.443-45.37-23.35-56.35-45.31-3.296-6.588-6.344-13.33-6.773-14.98l-0.7808-3h-255.9l-2.81 7.667c-9.056 24.71-29.29 44.79-54.23 53.81-6.396 2.315-11.57 2.971-25.99 3.289-9.9 0.2189-19.2 0.0761-20.67-0.3174zm29.71-33.13c17.29-4.077 29.37-13.7 37.27-29.69 4.8-9.716 5.021-10.76 5.018-23.56-3e-3 -12.29-0.3539-14.14-4.258-22.39-5.506-11.63-15.12-21.24-26.75-26.75-8.335-3.949-10.01-4.258-23.02-4.258-13.19 0-14.56 0.2638-23.02 4.425-34.49 16.98-41.96 61.15-14.83 87.73 7.877 7.716 16.49 12.37 27.21 14.7 9.845 2.139 12.57 2.115 22.38-0.1975zm-18.84-27.29c-10.84-3.444-19.53-15.02-19.53-26.01 0-7.152 4.721-16.18 11.12-21.28 4.718-3.754 5.941-4.077 15.43-4.077 8.705 0 11.04 0.4994 15 3.213 8.32 5.701 11.12 11.26 11.12 22.12 0 8.163-0.5255 10.32-3.668 15.07-5.904 8.922-19.72 14.06-29.47 10.96zm443.2 27.96c17.32-3.284 32.79-15.03 40.24-30.56 5.731-11.94 6.718-27.71 2.521-40.29-5.322-15.95-18.68-29.3-34.63-34.63-11.84-3.95-28.3-3.187-39.19 1.816-21.62 9.933-35.69 35.33-31.8 57.41 3.207 18.21 14.76 33.92 30.28 41.19 12.59 5.89 21.18 7.224 32.58 5.062zm-15.39-27.89c-5.951-1.436-9.18-3.476-13.76-8.693-11.06-12.6-7.137-33.13 7.785-40.75 7.654-3.905 18.79-3.6 26.16 0.7144 8.054 4.72 12.49 12.69 12.49 22.47 0 13.04-7.183 22.71-19.33 26.02-5.909 1.614-7.497 1.642-13.33 0.2334zm-506.6-43.1c0.517-3.117 2.343-9.417 4.057-14l3.117-8.333h-34.55v28h26.43zm426.8 0.6667c0.8246-4.451 3.89-14.15 6.534-20.67 0.8975-2.213-5.995-2.333-133.7-2.333h-134.7l3.152 7.667c1.733 4.217 3.544 10.52 4.023 14l0.8713 6.333h252.9zm245.9-9v-14h-40.16c-37.64 0-40.11 0.146-39.4 2.333 0.4174 1.283 1.968 5.633 3.445 9.667s2.706 8.883 2.73 10.78c0.024 1.894 0.4435 3.844 0.9324 4.333 0.4889 0.4889 16.99 0.8889 36.67 0.8889h35.78zm-626.6-52.56c14.84-7.426 27.51-9.972 45.09-9.061 15.07 0.7813 22.79 2.886 37.1 10.11l8.289 4.184 163 0.012 163 0.012 8.748-4.345 8.748-4.345 0.8108-143.3c0.446-78.83 0.3779-143.8-0.1513-144.3-0.5291-0.552-107.1-0.852-236.9-0.6667l-235.9 0.337-0.3434 146.7c-0.1888 80.67-0.0577 147.4 0.2915 148.3 0.4503 1.182 4.57 1.667 14.18 1.667 13.09 0 13.89-0.1746 23.99-5.231zm627.6-39.65 0.3512-44.21-22.35-50.78-22.35-50.78-57-5e-3 -57-5e-3v176l4.333 0.0232c8.609 0.046 22.59 3.953 32.69 9.139l10.31 5.292 55.33-0.227 55.33-0.227zm-80.35-83.89c-30.8-23.12-56.58-42.62-57.29-43.32-0.8207-0.8151 13.33-1.15 39.06-0.9246l40.35 0.3533 17.12 43c9.415 23.65 17.04 42.99 16.94 42.97-0.0991-0.0181-25.38-18.95-56.18-42.08z"/>
</svg>
