<svg width="768" height="483.8" version="1.1" viewBox="0 0 768.01501 483.84387" xmlns="http://www.w3.org/2000/svg">
	<path d="m151.5 481.9c-30.96-7.495-56.64-33.46-64.84-65.55l-1.447-5.667h-85.23v-410.7l228.2 0.3371 228.2 0.3371 26.63 71.33 26.87 71.68 128.8 20.67 128.5 20.32 0.3409 113 0.3409 113-42.87 0.3518-42.87 0.3518-2.204 8c-6.268 22.75-24.5 44.85-45.49 55.14-16.74 8.206-25.26 9.943-45.19 9.212-13.6-0.4986-18.39-1.24-25.71-3.979-13.1-4.906-23.02-11.23-33.02-21.04-10.63-10.43-17.94-22.17-22.78-36.61l-3.598-10.72-120.8-0.3404-120.8-0.3404-1.451 5.674c-8.371 32.74-33.9 58.18-65.98 65.74-10.14 2.392-33.59 2.293-43.83-0.1848zm41.54-33.91c33.87-11.91 47.91-53.44 28.3-83.77-21.87-33.84-71.56-34.4-94.11-1.068-15.72 23.24-11.97 54.64 8.747 73.27 16.03 14.42 36.92 18.65 57.07 11.57zm409.8 2.664c23.11-4.382 39.97-20.59 46.03-44.25 5.305-20.71-4.853-45.72-23.67-58.28-23.62-15.77-54.45-12.08-73.27 8.782-10.94 12.12-15.13 24.15-14.27 40.91 0.7736 14.98 4.615 24.23 14.41 34.7 9.066 9.691 17.99 14.95 29.63 17.48 10.48 2.276 12.32 2.334 21.14 0.661zm-516.2-77.64c7.341-29.22 29.82-53.28 59.65-63.85 11.22-3.973 34.11-4.885 47.55-1.894 16.56 3.684 30.36 11.38 42.93 23.96 12.07 12.07 18.8 23.01 23.24 37.79l2.907 9.674 120.7-0.3404 120.7-0.3404 2.929-8.667c9.021-26.69 24.65-44.88 48.07-55.94 24.7-11.67 56.3-10.79 81.05 2.255 14.24 7.507 29.51 23.2 36.7 37.7 3.085 6.225 6.374 14.32 7.309 17.98l1.7 6.665h51.83l0.3435-82.31 0.3435-82.31-3.01-0.6876-117.4-18.69-114.4-18.01h-466.5v100.4l0.8889 101.3 25.95 0.8889h25.06zm34.68-285v-54.67h-88v109.3h88zm114.7 0v-54.67h-81.33v109.3h81.33zm115.3 0v-54l-41-0.3526-41-0.3526v109.4l41-0.3526 41-0.3526zm122 53.77-20.18-54.7-20.18-53.8-24.15 0.3627-24.15 0.3627-0.3491 52.66 0.2915 54.33 44.68 1.669z"/>
</svg>
