<svg width="619.9" height="177.3" preserveAspectRatio="none" version="1.1" viewBox="0 0 619.92357 177.255" xmlns="http://www.w3.org/2000/svg">
	<path d="m619.9 88.63c0.014 48.94-39.65 88.61-88.58 88.63-48.94 0.012-88.61-39.65-88.63-88.58v-0.045c-0.013-48.94 39.65-88.61 88.58-88.63 48.94-0.013 88.62 39.65 88.63 88.58z" fill="#f90"/>
	<path d="m411.9 0.018c-48.65 0.309-88.03 39.89-88.03 88.6 0 48.91 39.7 88.6 88.6 88.6 22.96 0 43.88-8.748 59.62-23.09-1e-3 0-3e-3 -2e-3 -7e-3 -4e-3h0.019c3.224-2.938 6.231-6.108 8.995-9.488h-18.15c-2.424-2.928-4.627-5.979-6.606-9.127h31.31c1.904-3.047 3.628-6.211 5.158-9.488h-41.64c-1.419-3.042-2.651-6.153-3.703-9.309h49.04c2.956-8.832 4.56-18.28 4.56-28.1 0-6.512-0.706-12.86-2.042-18.97h-54.16c0.671-3.146 1.518-6.254 2.528-9.308h49.06c-1.097-3.25-2.371-6.417-3.82-9.487h-41.47c1.496-3.196 3.191-6.305 5.084-9.307h31.28c-2.082-3.317-4.386-6.486-6.877-9.488h-17.44c2.697-3.174 5.666-6.163 8.889-8.95-15.75-14.34-36.68-23.09-59.64-23.09-0.191 0-0.38-1e-3 -0.571 0z" fill="#c00"/>
	<path d="m518.5 67.61c-7.586-0.02984-13.49 2.68-17.45 7.729-0.0355-0.04634-0.4848-0.5742-2.854-0.5742-4.225 0-9.867 8.574-9.867 8.574l0.8438-5.301h-8.785l-5.885 36.57h9.689c2.723-15.48 3.712-27.73 11.54-25.45-0.269 2.011-0.4082 4.147-0.4082 6.406 0 11.76 6.248 19.77 17.51 19.77 3.183 0 8.256-1.293 8.256-1.293l1.689-10.28s-4.632 2.32-7.807 2.32c-6.693 0-9.379-5.109-9.379-10.6 0-11.14 5.758-17.27 12.17-17.27 4.808 0 8.664 2.699 8.664 2.699l1.541-9.994s-4.555-3.288-9.457-3.307zm-158.1 1.891-9.125 27.51-0.25-27.39h-14.06l-7.545 44.92h9.389l5.742-33.87 0.8438 33.87h6.5l12.12-33.87-5.371 33.87h9.658l7.436-44.92zm238.5 0.07227-1.705 12.71s-3.552-4.906-9.111-4.906c-5.72 0-9.914 3.132-12.55 7.916-0.0762-2.106-1.135-2.107-2.877-2.107-4.228 0-5.164 0.1543-5.164 0.1543l0.8438-5.303h-8.785l-5.885 36.57h9.691c1.425-10.85 3.996-25.84 10.54-25.59-1.101 3.232-1.666 6.911-1.666 10.76 0 7.73 3.844 15.31 11.7 15.31 5.651 0 8.785-3.939 8.785-3.939l-0.416 3.365h9.178l7.207-44.86zm-166.1 2.943c-0.208 0.208-5.566 31.02-5.566 34.78 0 5.555 3.118 8.027 7.516 7.988 3.442-0.029 6.124-0.9813 7.07-1.236l1.18-8.02c-0.645 0-1.592 0.2793-2.43 0.2793-3.284 0-3.696-1.755-3.438-3.037l3.236-16.13h4.992l1.029-9.104h-4.705l0.959-5.516zm28.52 4.467c-9.486 2e-3 -16.51 10.22-16.51 21.77 0 13.33 8.799 16.5 16.3 16.5 6.921 0 10.55-1.604 10.55-1.604l1.662-9.1s-5.849 2.377-10.6 2.377c-10.13 0-8.354-7.555-8.354-7.555l19.46 0.0606s1.238-6.113 1.238-8.604c0-6.217-3.386-13.85-13.74-13.85zm-71.39 0.1465c-6.469 0-11.43 2.078-11.43 2.078l-1.369 8.127s4.093-1.662 10.28-1.662c3.513 0 6.082 0.395 6.082 3.25 0 1.734-0.3125 2.375-0.3125 2.375s-2.773-0.2324-4.057-0.2324c-9.21 0-16.73 3.482-16.73 13.98 0 8.273 5.622 10.17 9.107 10.17 6.657 0 9.291-4.203 9.443-4.215l-0.0762 3.488h8.307l3.705-25.98c0-11.02-9.615-11.38-12.96-11.38zm150.9 0c-6.472 0-11.43 2.078-11.43 2.078l-1.369 8.127s4.094-1.662 10.28-1.662c3.514 0 6.084 0.395 6.084 3.25 0 1.734-0.3125 2.375-0.3125 2.375s-2.773-0.2324-4.057-0.2324c-9.211 0-16.73 3.482-16.73 13.98 0 8.273 5.622 10.17 9.107 10.17 6.655 0 9.292-4.203 9.443-4.215l-0.0781 3.488h8.309l3.705-25.98c1e-3 -11.02-9.615-11.38-12.95-11.38zm-122 0.05859c-6.979 0-14.06 2.786-14.06 12.32 0 10.8 11.81 9.716 11.81 14.27 0 3.037-3.3 3.287-5.844 3.287-4.401 0-8.363-1.51-8.377-1.438l-1.26 8.244c0.229 0.07 2.675 1.158 10.59 1.158 2.125 0 14.27 0.5409 14.27-11.99 0-11.72-11.24-9.405-11.24-14.12 0-2.342 1.833-3.08 5.184-3.08 1.329 0 6.447 0.4238 6.447 0.4238l1.189-8.33c0 1e-3 -3.311-0.7402-8.703-0.7402zm42.49 8.242c5.324 0 4.342 5.984 4.342 6.469h-10.47c0-0.62 0.9898-6.469 6.133-6.469zm128.4 1.02c3.394 0 5.139 2.33 5.139 7.824 0 4.983-2.469 11.64-7.582 11.64-3.396 0-4.988-2.849-4.988-7.322 0-7.315 3.285-12.14 7.432-12.14zm-199.8 11.62c1.61 0 1.196 0.1152 1.467 0.1582 0.181 1.586-0.4098 9.086-6.092 9.086-2.93 0-3.691-2.24-3.691-3.562 0-2.584 1.404-5.682 8.316-5.682zm150.9 0c1.611 0 1.199 0.1152 1.469 0.1582 0.18 1.586-0.4108 9.086-6.092 9.086-2.932 0-3.691-2.24-3.691-3.562 0-2.584 1.401-5.682 8.314-5.682z" fill="#006"/>
	<path d="m519.8 65.75c-10.89 0-21.49 9.449-21.49 27.19 0 11.77 5.721 19.54 16.98 19.54 3.183 1e-3 8.254-1.293 8.254-1.293l1.688-10.29s-4.628 2.322-7.805 2.322c-6.692 0-9.377-5.112-9.377-10.6 0-11.14 5.758-17.26 12.17-17.26 4.807 0 8.666 2.699 8.666 2.699l1.539-9.992s-5.721-2.316-10.62-2.316zm-180 1.016-7.545 44.92h9.098l5.742-33.87 0.8438 33.87h6.5l12.12-33.87-5.371 33.87h9.658l7.438-44.92h-14.94l-9.301 27.56-0.4844-27.56zm271.4 0.01953-9.457 0.01563-2.035 12.63s-3.55-4.904-9.109-4.904c-8.644 0-15.85 10.42-15.85 22.4 0 7.73 3.843 15.3 11.7 15.3 5.651 0 8.785-3.941 8.785-3.941l-0.416 3.365h9.176zm-175.9 2.879c-0.208 0.208-5.568 31.02-5.568 34.78 0 5.555 3.118 8.028 7.516 7.988 3.444-0.029 6.126-0.9823 7.072-1.236l1.182-8.02c-0.645 0-1.595 0.2774-2.432 0.2774-3.284 0-3.646-1.746-3.438-3.037l2.654-16.36h4.99l1.205-8.871h-4.705l0.957-5.516zm28.52 4.465c-9.486 2e-3 -16.51 10.22-16.51 21.77 0 13.33 8.8 16.5 16.3 16.5 6.92 0 9.965-1.547 9.965-1.547l1.662-9.1s-5.266 2.32-10.02 2.32c-10.13 0-8.355-7.553-8.355-7.553h19.17s1.238-6.114 1.238-8.605c0-6.216-3.093-13.79-13.45-13.79zm-71.38 0.1465c-6.469 0-11.43 2.08-11.43 2.08l-1.369 8.127s4.092-1.664 10.28-1.664c3.513 0 6.084 0.395 6.084 3.25 0 1.734-0.3145 2.375-0.3145 2.375s-2.772-0.2324-4.055-0.2324c-8.159 0-16.73 3.482-16.73 13.98 0 8.272 5.622 10.17 9.107 10.17 6.656 0 9.527-4.319 9.68-4.332l-0.3125 3.605h8.309l3.705-25.98c0-11.02-9.615-11.38-12.96-11.38zm152.9 0c-6.469 0-11.43 2.08-11.43 2.08l-1.367 8.127s4.092-1.664 10.28-1.664c3.513 0 6.082 0.395 6.082 3.25 0 1.734-0.3145 2.375-0.3145 2.375s-2.771-0.2324-4.055-0.2324c-8.158 0-16.73 3.482-16.73 13.98 0 8.272 5.622 10.17 9.107 10.17 6.656 0 9.524-4.319 9.676-4.332l-0.3086 3.605h8.307l3.705-25.98c1e-3 -11.02-9.615-11.38-12.96-11.38zm-124 0.05859c-6.979 0-14.06 2.786-14.06 12.32 0 10.8 11.81 9.716 11.81 14.27 0 3.037-3.301 3.285-5.844 3.285-4.401 0-8.363-1.51-8.377-1.438l-1.26 8.246c0.228 0.07 2.672 1.158 10.59 1.158 2.125 0 14.27 0.5409 14.27-11.99 0-11.72-11.24-9.403-11.24-14.11 0-2.344 1.834-3.082 5.184-3.082 1.33 0 6.445 0.4219 6.445 0.4219l1.191-8.33c0 1e-3 -3.313-0.7402-8.705-0.7402zm76.84 0.377c-4.225 0-7.355 5.773-7.355 5.773l0.8418-5.301h-8.783l-5.885 36.57h9.688c2.746-15.62 3.256-28.3 9.809-25.97 1.147-6.044 2.254-8.383 3.506-10.94 0 0-0.5883-0.123-1.82-0.123zm79.21 0c-4.225 0-7.355 5.773-7.355 5.773l0.8398-5.301h-8.783l-5.885 36.57h9.688c2.747-15.62 3.256-28.3 9.807-25.97 1.149-6.044 2.257-8.383 3.508-10.94 0 0-0.5864-0.123-1.818-0.123zm-113.6 7.867c5.324 0 4.342 5.983 4.342 6.467h-10.47c0-0.618 0.9889-6.467 6.131-6.467zm128.4 1.02c3.396-1e-3 5.139 2.33 5.139 7.822 0 4.983-2.467 11.64-7.582 11.64-3.395 0-4.986-2.851-4.986-7.324 0-7.314 3.285-12.14 7.43-12.14zm-199.8 11.61c1.608 2e-3 1.78 0.1748 2.051 0.2188 0.18 1.587-0.9958 9.025-6.676 9.025-2.93 0-3.691-2.237-3.691-3.561 0-2.582 1.403-5.684 8.316-5.684zm152.9 0c1.608 2e-3 1.781 0.1748 2.055 0.2188 0.18 1.587-0.9977 9.025-6.68 9.025-2.93 0-3.689-2.237-3.689-3.561 0-2.582 1.402-5.684 8.314-5.684z" fill="#fff"/>
	<path d="m610.9 106.1c0.479 0 0.951 0.123 1.406 0.373 0.459 0.242 0.816 0.598 1.072 1.059 0.257 0.458 0.383 0.935 0.383 1.434 0 0.493-0.126 0.969-0.379 1.424-0.251 0.455-0.604 0.812-1.059 1.063-0.454 0.25-0.93 0.376-1.424 0.376-0.498 0-0.974-0.126-1.429-0.376-0.454-0.253-0.806-0.608-1.058-1.063-0.256-0.455-0.381-0.931-0.381-1.424 0-0.499 0.127-0.976 0.384-1.434 0.258-0.461 0.616-0.815 1.073-1.059 0.461-0.25 0.933-0.373 1.412-0.373m0 0.472c-0.401 0-0.793 0.104-1.176 0.313-0.382 0.204-0.679 0.499-0.894 0.885-0.214 0.381-0.322 0.78-0.322 1.194s0.104 0.81 0.313 1.188c0.213 0.377 0.509 0.673 0.891 0.886 0.378 0.208 0.773 0.313 1.188 0.313 0.412 0 0.81-0.105 1.188-0.313 0.378-0.213 0.674-0.509 0.884-0.886 0.211-0.381 0.314-0.774 0.314-1.188s-0.107-0.813-0.321-1.194c-0.213-0.386-0.51-0.681-0.894-0.885-0.38-0.208-0.769-0.313-1.171-0.313m-1.255 3.976v-3.083h1.061c0.361 0 0.625 0.029 0.785 0.088 0.162 0.055 0.289 0.154 0.388 0.297 0.097 0.142 0.146 0.291 0.146 0.451 0 0.225-0.082 0.422-0.244 0.588-0.158 0.166-0.371 0.262-0.637 0.28 0.106 0.046 0.194 0.101 0.262 0.163 0.123 0.122 0.275 0.326 0.455 0.611l0.377 0.604h-0.609l-0.271-0.485c-0.216-0.383-0.389-0.621-0.521-0.718-0.091-0.071-0.224-0.106-0.399-0.106h-0.291v1.311l-0.502-1e-3m0.498-1.735h0.604c0.289 0 0.484-0.043 0.588-0.129 0.105-0.084 0.16-0.199 0.16-0.342 0-0.091-0.025-0.173-0.075-0.242-0.051-0.074-0.122-0.127-0.213-0.164-0.091-0.035-0.254-0.053-0.498-0.053h-0.565v0.93" fill="#fff"/>
	<path d="m196.3 34.85c-24 0-40.9 12.8-41 31.09-0.1993 13.5 12.1 21 21.3 25.5 9.402 4.599 12.6 7.601 12.6 11.7-0.0957 6.296-7.598 9.199-14.59 9.199-9.702 0-14.9-1.497-22.8-5l-3.2-1.502-3.401 21.1c5.7 2.597 16.2 4.901 27.1 5.002 25.5 0 42.1-12.6 42.3-32.1 0.097-10.7-6.397-18.9-20.4-25.6-8.5-4.3-13.71-7.2-13.71-11.6 0.0997-4 4.403-8.097 14-8.097 7.9-0.2007 13.71 1.698 18.1 3.599l2.198 0.9978 3.305-20.3c-4.793-1.902-12.4-4.001-21.8-4.001zm-110.9 1.704l-23.8 64.09-2.601-13c-4.4-15-18.2-31.29-33.6-39.4l21.8 82.19h25.7l38.2-93.89zm35.5 0-15.2 93.99h24.3l15.2-93.99zm140.7 0c-5.797 0-10.2 1.698-12.7 7.798l-36.1 86.19h25.5s4.198-11.6 5.1-14.1h31.2c0.6977 3.3 2.9 14.1 2.9 14.1h22.5l-19.61-93.99zm1.7 25.4 1.699 8.098s4.602 22.5 5.601 27.2h-20.2c2.001-5.399 9.703-26.3 9.703-26.3-0.101 0.2007 1.997-5.499 3.197-8.998z" fill="#00579f"/>
	<path d="m39.5 36.55h-39.1l-0.4 1.899c30.5 7.799 50.7 26.6 59 49.2l-8.5-43.2c-1.399-6.003-5.7-7.702-11-7.9z" fill="#faa61a"/>
</svg>
