<svg width="300" height="97.09" version="1.1" viewBox="0 0 300 97.09" xmlns="http://www.w3.org/2000/svg" preserveAspectRatio="none">
 <path d="m196.3 0c-24 0-40.9 12.8-41 31.09-0.1993 13.5 12.1 21 21.3 25.5 9.402 4.599 12.6 7.601 12.6 11.7-0.0957 6.296-7.598 9.199-14.59 9.199-9.702 0-14.9-1.497-22.8-5l-3.2-1.502-3.401 21.1c5.7 2.597 16.2 4.901 27.1 5.002 25.5 0 42.1-12.6 42.3-32.1 0.097-10.7-6.397-18.9-20.4-25.6-8.5-4.3-13.71-7.2-13.71-11.6 0.0997-4 4.403-8.097 14-8.097 7.9-0.2007 13.71 1.698 18.1 3.599l2.198 0.9978 3.305-20.3c-4.793-1.902-12.4-4.001-21.8-4.001zm-110.9 1.704-23.8 64.09-2.601-13c-4.4-15-18.2-31.29-33.6-39.4l21.8 82.19h25.7l38.2-93.89zm35.5 0-15.2 93.99h24.3l15.2-93.99zm140.7 0c-5.797 0-10.2 1.698-12.7 7.798l-36.1 86.19h25.5s4.198-11.6 5.1-14.1h31.2c0.6977 3.3 2.9 14.1 2.9 14.1h22.5l-19.61-93.99zm1.7 25.4 1.699 8.098s4.602 22.5 5.601 27.2h-20.2c2.001-5.399 9.703-26.3 9.703-26.3-0.101 0.2007 1.997-5.499 3.197-8.998z" fill="#00579f" />
 <path d="m39.5 1.704h-39.1l-0.4 1.899c30.5 7.799 50.7 26.6 59 49.2l-8.5-43.2c-1.399-6.003-5.7-7.702-11-7.9z" fill="#faa61a" />
</svg>
